<?xml version="1.0" standalone="no"?>
<!DOCTYPE svg PUBLIC "-//W3C//DTD SVG 20010904//EN"
 "http://www.w3.org/TR/2001/REC-SVG-20010904/DTD/svg10.dtd">
<svg version="1.0" xmlns="http://www.w3.org/2000/svg"
 width="512.000000pt" height="512.000000pt" viewBox="0 0 512.000000 512.000000"
 preserveAspectRatio="xMidYMid meet">
<metadata>
Created by potrace 1.14, written by Peter Selinger 2001-2017
</metadata>
<g transform="translate(0.000000,512.000000) scale(0.100000,-0.100000)"
fill="#000000" stroke="none">
<path d="M3000 4587 c-14 -7 -33 -22 -44 -35 -17 -22 -24 -23 -122 -20 -105 3
-114 0 -127 -35 -1 -5 -44 -9 -94 -10 -81 -2 -94 -5 -116 -25 -20 -19 -35 -24
-74 -22 -96 5 -100 3 -113 -37 -7 -21 -16 -42 -21 -48 -5 -5 -38 -8 -73 -7
-36 2 -67 -2 -70 -7 -4 -5 -8 -27 -10 -49 -4 -49 -12 -62 -37 -62 -11 0 -35
-6 -53 -14 -30 -13 -35 -20 -41 -63 -8 -61 -15 -72 -51 -82 -26 -7 -30 -12
-34 -57 -3 -30 -14 -61 -28 -78 -22 -28 -22 -34 -22 -295 0 -233 2 -270 17
-290 12 -17 16 -42 15 -85 -2 -59 12 -116 28 -116 14 0 22 -33 26 -98 2 -40 8
-70 18 -81 9 -10 16 -35 16 -59 0 -61 15 -92 44 -92 28 0 40 -25 31 -62 -8
-30 9 -45 54 -50 29 -2 36 -8 46 -38 11 -34 14 -35 66 -38 41 -2 60 -9 80 -28
26 -25 31 -26 135 -23 60 1 151 1 201 0 81 -2 96 0 119 18 22 17 35 19 88 14
56 -5 64 -3 93 21 24 20 42 26 78 26 25 0 55 5 66 11 15 8 27 6 53 -10 18 -12
47 -21 64 -21 22 0 35 -7 43 -22 6 -13 27 -37 45 -54 19 -18 34 -41 34 -52 0
-13 11 -26 28 -34 19 -9 28 -22 30 -43 2 -18 14 -39 30 -52 18 -15 27 -33 28
-55 0 -18 4 -47 8 -64 6 -26 3 -34 -19 -48 -23 -15 -25 -22 -25 -87 l0 -70
-35 -15 c-19 -8 -35 -18 -35 -22 -3 -61 -11 -146 -15 -153 -3 -4 -21 -11 -39
-14 -33 -7 -34 -8 -40 -72 -8 -76 -20 -103 -44 -103 -39 0 -60 -35 -61 -100
-1 -79 -12 -100 -55 -100 -40 0 -51 -12 -61 -65 -9 -54 -21 -65 -66 -65 -42 0
-69 -26 -69 -66 0 -25 -17 -34 -65 -34 -34 0 -75 -36 -75 -66 0 -19 -33 -34
-73 -34 -29 0 -38 -6 -56 -35 -19 -33 -24 -35 -71 -35 -36 0 -59 -6 -80 -22
-24 -17 -32 -19 -45 -8 -8 7 -15 18 -15 25 0 29 -36 45 -101 45 -77 0 -96 11
-107 65 l-8 40 -54 3 c-30 2 -59 7 -65 13 -5 5 -12 33 -15 62 l-5 52 -45 3
c-24 2 -48 8 -51 14 -4 5 -4 39 -1 74 5 62 4 64 -19 64 -14 0 -35 7 -47 16
-19 13 -22 24 -22 80 0 64 -1 65 -31 76 -38 13 -51 46 -43 107 5 41 3 48 -20
68 -14 12 -28 38 -32 60 -4 20 -4 146 -1 280 4 200 3 246 -8 257 -12 11 -58
14 -236 12 -206 -2 -222 -3 -236 -22 -12 -15 -14 -57 -13 -219 1 -110 2 -211
3 -225 0 -14 0 -140 -2 -280 l-1 -255 30 -17 31 -18 -2 -95 c-1 -76 2 -99 15
-114 12 -13 16 -38 16 -99 0 -78 1 -81 30 -102 28 -20 29 -24 24 -78 -3 -31
-1 -62 3 -68 4 -6 28 -21 52 -33 41 -21 43 -25 38 -56 -7 -43 15 -75 52 -75
30 0 61 -27 61 -52 0 -37 12 -48 51 -48 38 0 50 -7 91 -58 13 -16 29 -22 58
-22 37 0 85 -21 101 -43 4 -5 16 -3 27 4 17 11 28 11 55 1 41 -15 67 -15 67
-2 0 15 283 13 298 -2 8 -8 12 -9 12 -1 0 6 14 14 31 18 17 4 33 13 36 21 4
12 20 13 78 8 l73 -7 23 32 c22 30 26 31 93 31 43 1 81 6 96 15 15 8 54 14 95
15 76 0 86 4 104 37 10 20 20 23 71 23 65 0 100 21 100 60 0 11 3 20 8 21 4 0
33 2 65 4 72 5 77 9 77 48 0 48 11 58 74 66 65 9 76 19 76 73 0 46 24 72 60
64 43 -8 64 14 62 66 -2 50 7 62 54 72 24 5 34 14 40 39 6 20 24 42 49 58 33
22 39 32 37 54 -3 18 4 35 19 51 15 16 22 35 21 54 -1 17 7 49 19 72 21 41 21
49 17 458 -4 414 -4 417 -27 454 -19 30 -22 46 -18 81 5 31 2 46 -8 55 -9 8
-15 30 -15 59 0 25 -7 59 -15 75 -8 15 -15 44 -15 62 0 24 -8 41 -25 56 -14
12 -25 32 -25 45 0 13 -11 29 -26 40 -15 9 -33 32 -40 50 -8 19 -22 33 -31 33
-9 0 -28 11 -42 24 -15 13 -66 36 -114 51 -81 26 -96 27 -190 21 -168 -12
-201 -16 -222 -30 -13 -9 -62 -15 -135 -17 l-115 -4 -3 25 c-5 38 -18 45 -85
45 -60 0 -62 1 -67 29 -5 29 -11 34 -65 58 -24 11 -31 21 -35 52 -4 33 -10 41
-33 47 -40 11 -57 28 -57 56 0 13 -8 38 -17 56 -19 36 -20 152 -1 174 6 7 21
13 34 13 32 0 54 34 47 76 -3 18 -3 44 1 58 5 22 12 26 46 26 40 0 70 25 70
60 0 33 27 54 76 59 47 6 49 7 52 41 5 52 18 62 76 58 49 -3 52 -2 65 29 17
39 46 51 70 29 13 -12 39 -16 102 -16 97 0 109 -7 109 -62 0 -44 19 -58 78
-58 49 0 60 -13 64 -75 l3 -49 50 -11 50 -10 5 -67 c3 -36 8 -70 13 -74 4 -4
115 -8 247 -8 l240 -1 0 443 0 442 -64 0 c-69 0 -92 14 -83 50 8 31 -18 43
-88 41 -59 -1 -67 1 -95 29 l-32 31 -241 -3 c-133 -2 -251 0 -262 4 -11 3 -31
1 -45 -5z m-294 -191 c19 -14 19 -15 0 -22 -11 -4 -38 -8 -60 -8 -69 -1 -46
39 25 43 8 1 24 -5 35 -13z m-158 -80 c15 -8 35 -23 45 -34 23 -25 13 -29 -92
-38 -91 -8 -106 3 -64 42 47 44 72 50 111 30z m941 -101 c1 -58 -13 -90 -22
-53 -9 30 -8 87 0 117 6 23 7 23 14 5 4 -10 8 -41 8 -69z m155 18 c20 -59 20
-154 0 -213 -27 -82 -24 -76 -34 -60 -11 17 -14 313 -4 323 12 11 22 -2 38
-50z m-1214 -32 c0 -5 12 -23 26 -40 21 -26 24 -34 14 -46 -7 -8 -25 -15 -40
-15 -34 0 -91 -18 -109 -35 -11 -11 -9 -18 13 -40 15 -15 25 -32 23 -38 -2 -7
-41 -18 -87 -25 -71 -11 -86 -10 -98 2 -12 12 -12 17 3 39 9 14 32 36 50 49
19 12 35 31 35 41 0 9 9 34 20 55 14 27 30 40 57 49 47 14 93 16 93 4z m1374
-143 c8 -31 6 -109 -3 -133 -5 -13 -10 0 -14 44 -9 85 -9 111 2 111 5 0 11
-10 15 -22z m-1580 -159 c23 -27 8 -39 -51 -39 -49 0 -62 14 -37 40 25 25 66
25 88 -1z m60 -910 c8 -40 7 -99 -3 -122 -13 -33 -35 8 -35 66 -1 82 25 120
38 56z m740 -61 c29 -41 15 -139 -21 -152 -27 -11 -70 24 -76 60 -7 39 7 94
25 106 24 15 57 8 72 -14z m-633 -98 l-4 -25 -10 28 c-5 15 -6 40 -1 55 l7 27
6 -30 c4 -16 5 -41 2 -55z m1104 -25 c18 -17 25 -35 25 -64 0 -79 -31 -98 -51
-31 -7 22 -18 45 -26 51 -7 6 -13 24 -13 40 0 37 31 39 65 4z m99 -110 c4 -19
2 -54 -5 -77 -9 -35 -12 -39 -21 -25 -13 23 -22 121 -14 142 9 25 32 2 40 -40z
m-697 18 c5 -14 -40 -28 -62 -19 -20 7 -19 24 3 28 31 7 55 3 59 -9z m757
-105 c9 -34 7 -76 -3 -82 -9 -6 -21 40 -21 80 0 30 16 31 24 2z m-114 -1158
c0 -5 -4 -10 -10 -10 -5 0 -10 5 -10 10 0 6 5 10 10 10 6 0 10 -4 10 -10z
m-2080 -106 c0 -8 -4 -12 -10 -9 -5 3 -10 13 -10 21 0 8 5 12 10 9 6 -3 10
-13 10 -21z m2045 -4 c17 -28 -44 -51 -89 -34 -21 8 -20 31 2 37 33 9 81 7 87
-3z m-1923 -149 c2 -93 0 -125 -10 -128 -7 -3 -19 11 -28 34 -28 67 -5 259 27
226 4 -4 9 -64 11 -132z m1843 39 c12 -19 -5 -45 -42 -65 -23 -13 -40 -31 -46
-50 -13 -41 -45 -74 -81 -83 -30 -8 -33 -11 -59 -72 -12 -29 -23 -38 -66 -52
l-52 -17 -22 26 c-12 14 -31 34 -42 45 -17 16 -18 20 -5 28 8 5 30 10 48 10
47 0 122 20 122 33 0 6 -6 18 -14 26 -8 9 -17 28 -21 43 -7 29 -11 28 99 42
50 7 61 18 45 44 -17 27 -9 34 44 43 64 10 85 10 92 -1z m-1714 -107 c14 -116
8 -227 -12 -231 -49 -9 -75 205 -36 292 24 54 36 38 48 -61z m134 -180 c0
-175 -10 -199 -47 -116 -30 67 -30 160 1 236 36 91 46 64 46 -120z m95 -85 c0
-64 -3 -88 -10 -78 -13 20 -13 170 0 170 6 0 10 -37 10 -92z m1110 -7 c0 -23
-49 -61 -79 -61 -25 0 -106 48 -97 58 8 7 84 19 139 21 30 1 37 -2 37 -18z
m-170 -101 c13 -9 12 -12 -4 -25 -25 -19 -86 -19 -112 -1 -21 16 -14 22 41 29
54 7 60 7 75 -3z"/>
</g>
</svg>
